<?xml version="1.0" encoding="UTF-8" standalone="no"?>
<!DOCTYPE svg PUBLIC "-//W3C//DTD SVG 1.1//EN" "http://www.w3.org/Graphics/SVG/1.1/DTD/svg11.dtd">
<svg width="100%" height="100%" viewBox="0 0 512 512" version="1.1" xmlns="http://www.w3.org/2000/svg" xmlns:xlink="http://www.w3.org/1999/xlink" xml:space="preserve" xmlns:serif="http://www.serif.com/" style="fill-rule:evenodd;clip-rule:evenodd;stroke-linejoin:round;stroke-miterlimit:2;">
    <g transform="matrix(1.382436,0,0,1.382436,-87.750708,-195.807365)">
        <circle cx="248.656" cy="326.82" r="185.18" style="fill:rgb(8,17,12);"/>
    </g>
    <g transform="matrix(0.967351,0,0,0.967351,-1.53096,-76.671192)">
        <circle cx="262.088" cy="437.445" r="87.869" style="fill-opacity:0;"/>
        <path d="M262.088,349.576C310.584,349.576 349.957,388.949 349.957,437.445C349.957,485.941 310.584,525.314 262.088,525.314C213.592,525.314 174.219,485.941 174.219,437.445C174.219,388.949 213.592,349.576 262.088,349.576ZM262.088,385.829C233.6,385.829 210.472,408.958 210.472,437.445C210.472,465.933 233.6,489.061 262.088,489.061C290.575,489.061 313.704,465.933 313.704,437.445C313.704,408.958 290.575,385.829 262.088,385.829Z" style="fill:rgb(30,215,96);"/>
    </g>
    <g transform="matrix(1,0,0,1.06108,-3,-12.163885)">
        <path d="M340,94.303L340,330.29C340,339.232 332.297,346.492 322.809,346.492L322.558,346.492C313.07,346.492 305.367,339.232 305.367,330.29L305.367,94.303C305.367,85.361 313.07,78.101 322.558,78.101L322.809,78.101C332.297,78.101 340,85.361 340,94.303Z" style="fill:rgb(30,215,96);"/>
    </g>
</svg>
